<svg id="SvgjsSvg1006" width="724.0062255859375" height="1018" xmlns="http://www.w3.org/2000/svg" version="1.1" xmlns:xlink="http://www.w3.org/1999/xlink" xmlns:svgjs="http://svgjs.com/svgjs"><defs id="SvgjsDefs1007"><marker id="SvgjsMarker1065" markerWidth="16" markerHeight="12" refX="16" refY="6" viewBox="0 0 16 12" orient="auto" markerUnits="userSpaceOnUse"><path id="SvgjsPath1066" d="M0,2 L14,6 L0,11 L0,2" fill="#323232" stroke="#323232" stroke-width="2"></path></marker><marker id="SvgjsMarker1069" markerWidth="16" markerHeight="12" refX="16" refY="6" viewBox="0 0 16 12" orient="auto" markerUnits="userSpaceOnUse"><path id="SvgjsPath1070" d="M0,2 L14,6 L0,11 L0,2" fill="#323232" stroke="#323232" stroke-width="2"></path></marker><marker id="SvgjsMarker1073" markerWidth="16" markerHeight="12" refX="16" refY="6" viewBox="0 0 16 12" orient="auto" markerUnits="userSpaceOnUse"><path id="SvgjsPath1074" d="M0,2 L14,6 L0,11 L0,2" fill="#323232" stroke="#323232" stroke-width="2"></path></marker><marker id="SvgjsMarker1089" markerWidth="16" markerHeight="12" refX="16" refY="6" viewBox="0 0 16 12" orient="auto" markerUnits="userSpaceOnUse"><path id="SvgjsPath1090" d="M0,2 L14,6 L0,11 L0,2" fill="#323232" stroke="#323232" stroke-width="2"></path></marker><marker id="SvgjsMarker1093" markerWidth="16" markerHeight="12" refX="16" refY="6" viewBox="0 0 16 12" orient="auto" markerUnits="userSpaceOnUse"><path id="SvgjsPath1094" d="M0,2 L14,6 L0,11 L0,2" fill="#323232" stroke="#323232" stroke-width="2"></path></marker><marker id="SvgjsMarker1103" markerWidth="16" markerHeight="12" refX="16" refY="6" viewBox="0 0 16 12" orient="auto" markerUnits="userSpaceOnUse"><path id="SvgjsPath1104" d="M0,2 L14,6 L0,11 L0,2" fill="#323232" stroke="#323232" stroke-width="2"></path></marker><marker id="SvgjsMarker1127" markerWidth="16" markerHeight="12" refX="16" refY="6" viewBox="0 0 16 12" orient="auto" markerUnits="userSpaceOnUse"><path id="SvgjsPath1128" d="M0,2 L14,6 L0,11 L0,2" fill="#323232" stroke="#323232" stroke-width="2"></path></marker><marker id="SvgjsMarker1131" markerWidth="16" markerHeight="12" refX="16" refY="6" viewBox="0 0 16 12" orient="auto" markerUnits="userSpaceOnUse"><path id="SvgjsPath1132" d="M0,2 L14,6 L0,11 L0,2" fill="#323232" stroke="#323232" stroke-width="2"></path></marker><marker id="SvgjsMarker1153" markerWidth="16" markerHeight="12" refX="16" refY="6" viewBox="0 0 16 12" orient="auto" markerUnits="userSpaceOnUse"><path id="SvgjsPath1154" d="M0,2 L14,6 L0,11 L0,2" fill="#323232" stroke="#323232" stroke-width="2"></path></marker><marker id="SvgjsMarker1163" markerWidth="16" markerHeight="12" refX="16" refY="6" viewBox="0 0 16 12" orient="auto" markerUnits="userSpaceOnUse"><path id="SvgjsPath1164" d="M0,2 L14,6 L0,11 L0,2" fill="#323232" stroke="#323232" stroke-width="2"></path></marker><marker id="SvgjsMarker1167" markerWidth="16" markerHeight="12" refX="16" refY="6" viewBox="0 0 16 12" orient="auto" markerUnits="userSpaceOnUse"><path id="SvgjsPath1168" d="M0,2 L14,6 L0,11 L0,2" fill="#323232" stroke="#323232" stroke-width="2"></path></marker><marker id="SvgjsMarker1171" markerWidth="16" markerHeight="12" refX="16" refY="6" viewBox="0 0 16 12" orient="auto" markerUnits="userSpaceOnUse"><path id="SvgjsPath1172" d="M0,2 L14,6 L0,11 L0,2" fill="#323232" stroke="#323232" stroke-width="2"></path></marker></defs><g id="SvgjsG1008" transform="translate(150.00628662109375,25.006274223327637)"><path id="SvgjsPath1009" d="M 0 4Q 0 0 4 0L 544 0Q 548 0 548 4L 548 963.9999771118164Q 548 967.9999771118164 544 967.9999771118164L 4 967.9999771118164Q 0 967.9999771118164 0 963.9999771118164Z" stroke="#323232" stroke-width="2" fill-opacity="1" fill="#ffffff"></path><g id="SvgjsG1010"><text id="SvgjsText1011" font-family="微软雅黑" text-anchor="middle" font-size="24px" width="144" fill="#323232" font-weight="400" align="middle" anchor="middle" family="微软雅黑" size="24px" weight="400" font-style="" y="51.54285550798688" transform="rotate(0)"><tspan id="SvgjsTspan1012" dy="30" x="274"><tspan id="SvgjsTspan1013" style="text-decoration:;">电商采购系统</tspan></tspan></text></g></g><g id="SvgjsG1014" transform="translate(25.00628662109375,477.406268119812)"><path id="SvgjsPath1015" d="M 23.333333333333332 12.5C 23.333333333333332 -4.166666666666666 46.666666666666664 -4.166666666666666 46.666666666666664 12.5C 46.666666666666664 29.166666666666668 23.333333333333332 29.166666666666668 23.333333333333332 12.5M 35 25L 35 75M 35 75L 5.833333333333333 100M 35 75L 64.16666666666666 100M 0 50L 70 50" stroke="#323232" stroke-width="2" fill-opacity="1" fill="#ffffff"></path><path id="SvgjsPath1016" d="M 0 0L 70 0L 70 100L 0 100Z" stroke="none" fill="none"></path><g id="SvgjsG1017"><text id="SvgjsText1018" font-family="微软雅黑" text-anchor="middle" font-size="13px" width="29" fill="#323232" font-weight="400" align="middle" anchor="middle" family="微软雅黑" size="13px" weight="400" font-style="" y="105.05" transform="rotate(0)"><tspan id="SvgjsTspan1019" dy="16" x="35"><tspan id="SvgjsTspan1020" style="text-decoration:;">商户</tspan></tspan></text></g></g><g id="SvgjsG1021" transform="translate(238.00628662109375,306.406268119812)"><path id="SvgjsPath1022" d="M 0 35C 0 -11.666666666666666 100 -11.666666666666666 100 35C 100 81.66666666666667 0 81.66666666666667 0 35Z" stroke="#323232" stroke-width="2" fill-opacity="1" fill="#ffffff"></path><g id="SvgjsG1023"><text id="SvgjsText1024" font-family="微软雅黑" text-anchor="middle" font-size="13px" width="29" fill="#323232" font-weight="400" align="middle" anchor="middle" family="微软雅黑" size="13px" weight="400" font-style="" y="25.05" transform="rotate(0)"><tspan id="SvgjsTspan1025" dy="16" x="50"><tspan id="SvgjsTspan1026" style="text-decoration:;">登录</tspan></tspan></text></g></g><g id="SvgjsG1027" transform="translate(238.00628662109375,395.406268119812)"><path id="SvgjsPath1028" d="M 0 35C 0 -11.666666666666666 100 -11.666666666666666 100 35C 100 81.66666666666667 0 81.66666666666667 0 35Z" stroke="#323232" stroke-width="2" fill-opacity="1" fill="#ffffff"></path><g id="SvgjsG1029"><text id="SvgjsText1030" font-family="微软雅黑" text-anchor="middle" font-size="13px" width="29" fill="#323232" font-weight="400" align="middle" anchor="middle" family="微软雅黑" size="13px" weight="400" font-style="" y="25.05" transform="rotate(0)"><tspan id="SvgjsTspan1031" dy="16" x="50"><tspan id="SvgjsTspan1032" style="text-decoration:;">登出</tspan></tspan></text></g></g><g id="SvgjsG1033" transform="translate(238.00628662109375,216.406268119812)"><path id="SvgjsPath1034" d="M 0 35C 0 -11.666666666666666 100 -11.666666666666666 100 35C 100 81.66666666666667 0 81.66666666666667 0 35Z" stroke="#323232" stroke-width="2" fill-opacity="1" fill="#ffffff"></path><g id="SvgjsG1035"><text id="SvgjsText1036" font-family="微软雅黑" text-anchor="middle" font-size="13px" width="29" fill="#323232" font-weight="400" align="middle" anchor="middle" family="微软雅黑" size="13px" weight="400" font-style="" y="25.05" transform="rotate(0)"><tspan id="SvgjsTspan1037" dy="16" x="50"><tspan id="SvgjsTspan1038" style="text-decoration:;">注册</tspan></tspan></text></g></g><g id="SvgjsG1039" transform="translate(410.00628662109375,589.406268119812)"><path id="SvgjsPath1040" d="M 0 35C 0 -11.666666666666666 100 -11.666666666666666 100 35C 100 81.66666666666667 0 81.66666666666667 0 35Z" stroke="#323232" stroke-width="2" fill-opacity="1" fill="#ffffff"></path><g id="SvgjsG1041"><text id="SvgjsText1042" font-family="微软雅黑" text-anchor="middle" font-size="13px" width="58" fill="#323232" font-weight="400" align="middle" anchor="middle" family="微软雅黑" size="13px" weight="400" font-style="" y="25.05" transform="rotate(0)"><tspan id="SvgjsTspan1043" dy="16" x="50"><tspan id="SvgjsTspan1044" style="text-decoration:;">编辑库存</tspan></tspan></text></g></g><g id="SvgjsG1045" transform="translate(238.00628662109375,668.406268119812)"><path id="SvgjsPath1046" d="M 0 35C 0 -11.666666666666666 100 -11.666666666666666 100 35C 100 81.66666666666667 0 81.66666666666667 0 35Z" stroke="#323232" stroke-width="2" fill-opacity="1" fill="#ffffff"></path><g id="SvgjsG1047"><text id="SvgjsText1048" font-family="微软雅黑" text-anchor="middle" font-size="13px" width="58" fill="#323232" font-weight="400" align="middle" anchor="middle" family="微软雅黑" size="13px" weight="400" font-style="" y="25.05" transform="rotate(0)"><tspan id="SvgjsTspan1049" dy="16" x="50"><tspan id="SvgjsTspan1050" style="text-decoration:;">库存管理</tspan></tspan></text></g></g><g id="SvgjsG1051" transform="translate(410.00628662109375,668.406268119812)"><path id="SvgjsPath1052" d="M 0 35C 0 -11.666666666666666 100 -11.666666666666666 100 35C 100 81.66666666666667 0 81.66666666666667 0 35Z" stroke="#323232" stroke-width="2" fill-opacity="1" fill="#ffffff"></path><g id="SvgjsG1053"><text id="SvgjsText1054" font-family="微软雅黑" text-anchor="middle" font-size="13px" width="29" fill="#323232" font-weight="400" align="middle" anchor="middle" family="微软雅黑" size="13px" weight="400" font-style="" y="25.05" transform="rotate(0)"><tspan id="SvgjsTspan1055" dy="16" x="50"><tspan id="SvgjsTspan1056" style="text-decoration:;">上架</tspan></tspan></text></g></g><g id="SvgjsG1057" transform="translate(410.00628662109375,745.406268119812)"><path id="SvgjsPath1058" d="M 0 35C 0 -11.666666666666666 100 -11.666666666666666 100 35C 100 81.66666666666667 0 81.66666666666667 0 35Z" stroke="#323232" stroke-width="2" fill-opacity="1" fill="#ffffff"></path><g id="SvgjsG1059"><text id="SvgjsText1060" font-family="微软雅黑" text-anchor="middle" font-size="13px" width="29" fill="#323232" font-weight="400" align="middle" anchor="middle" family="微软雅黑" size="13px" weight="400" font-style="" y="25.05" transform="rotate(0)"><tspan id="SvgjsTspan1061" dy="16" x="50"><tspan id="SvgjsTspan1062" style="text-decoration:;">下架</tspan></tspan></text></g></g><g id="SvgjsG1063"><path id="SvgjsPath1064" d="M338.00628662109375 703.406268119812L410.00628662109375 703.406268119812" stroke="#323232" stroke-width="2" fill="none" marker-end="url(#SvgjsMarker1065)"></path></g><g id="SvgjsG1067"><path id="SvgjsPath1068" d="M333.18713457680474 718.832691683461L410.00628662109375 780.406268119812" stroke="#323232" stroke-width="2" fill="none" marker-end="url(#SvgjsMarker1069)"></path></g><g id="SvgjsG1071"><path id="SvgjsPath1072" d="M331.67615960217154 685.906268119812L410.00628662109375 624.406268119812" stroke="#323232" stroke-width="2" fill="none" marker-end="url(#SvgjsMarker1073)"></path></g><g id="SvgjsG1075" transform="translate(408.00628662109375,296.406268119812)"><path id="SvgjsPath1076" d="M 0 35C 0 -11.666666666666666 100 -11.666666666666666 100 35C 100 81.66666666666667 0 81.66666666666667 0 35Z" stroke="#323232" stroke-width="2" fill-opacity="1" fill="#ffffff"></path><g id="SvgjsG1077"><text id="SvgjsText1078" font-family="微软雅黑" text-anchor="middle" font-size="13px" width="58" fill="#323232" font-weight="400" align="middle" anchor="middle" family="微软雅黑" size="13px" weight="400" font-style="" y="25.05" transform="rotate(0)"><tspan id="SvgjsTspan1079" dy="16" x="50"><tspan id="SvgjsTspan1080" style="text-decoration:;">输入密码</tspan></tspan></text></g></g><g id="SvgjsG1081" transform="translate(408.00628662109375,216.406268119812)"><path id="SvgjsPath1082" d="M 0 35C 0 -11.666666666666666 100 -11.666666666666666 100 35C 100 81.66666666666667 0 81.66666666666667 0 35Z" stroke="#323232" stroke-width="2" fill-opacity="1" fill="#ffffff"></path><g id="SvgjsG1083"><text id="SvgjsText1084" font-family="微软雅黑" text-anchor="middle" font-size="13px" width="58" fill="#323232" font-weight="400" align="middle" anchor="middle" family="微软雅黑" size="13px" weight="400" font-style="" y="25.05" transform="rotate(0)"><tspan id="SvgjsTspan1085" dy="16" x="50"><tspan id="SvgjsTspan1086" style="text-decoration:;">输入账号</tspan></tspan></text></g></g><g id="SvgjsG1087"><path id="SvgjsPath1088" d="M338.00628662109375 251.406268119812L408.00628662109375 251.406268119812" stroke="#323232" stroke-width="2" fill="none" marker-end="url(#SvgjsMarker1089)"></path></g><g id="SvgjsG1091"><path id="SvgjsPath1092" d="M329.2402421779748 268.7634805101255L408.00628662109375 331.406268119812" stroke="#323232" stroke-width="2" fill="none" marker-end="url(#SvgjsMarker1093)"></path></g><g id="SvgjsG1095" transform="translate(408.00628662109375,136.406268119812)"><path id="SvgjsPath1096" d="M 0 35C 0 -11.666666666666666 100 -11.666666666666666 100 35C 100 81.66666666666667 0 81.66666666666667 0 35Z" stroke="#323232" stroke-width="2" fill-opacity="1" fill="#ffffff"></path><g id="SvgjsG1097"><text id="SvgjsText1098" font-family="微软雅黑" text-anchor="middle" font-size="13px" width="58" fill="#323232" font-weight="400" align="middle" anchor="middle" family="微软雅黑" size="13px" weight="400" font-style="" y="25.05" transform="rotate(0)"><tspan id="SvgjsTspan1099" dy="16" x="50"><tspan id="SvgjsTspan1100" style="text-decoration:;">商户认证</tspan></tspan></text></g></g><g id="SvgjsG1101"><path id="SvgjsPath1102" d="M332.14026121730933 233.906268119812L408.00628662109375 171.406268119812" stroke="#323232" stroke-width="2" fill="none" marker-end="url(#SvgjsMarker1103)"></path></g><g id="SvgjsG1105" transform="translate(408.00628662109375,829.406268119812)"><path id="SvgjsPath1106" d="M 0 35C 0 -11.666666666666666 100 -11.666666666666666 100 35C 100 81.66666666666667 0 81.66666666666667 0 35Z" stroke="#323232" stroke-width="2" fill-opacity="1" fill="#ffffff"></path><g id="SvgjsG1107"><text id="SvgjsText1108" font-family="微软雅黑" text-anchor="middle" font-size="13px" width="58" fill="#323232" font-weight="400" align="middle" anchor="middle" family="微软雅黑" size="13px" weight="400" font-style="" y="17.55" transform="rotate(0)"><tspan id="SvgjsTspan1109" dy="16" x="50"><tspan id="SvgjsTspan1110" style="text-decoration:;">查看</tspan></tspan><tspan id="SvgjsTspan1111" dy="16" x="50"><tspan id="SvgjsTspan1112" style="text-decoration:;font-size: inherit;">历史订单</tspan></tspan></text></g></g><g id="SvgjsG1113" transform="translate(238.00628662109375,868.406268119812)"><path id="SvgjsPath1114" d="M 0 35C 0 -11.666666666666666 100 -11.666666666666666 100 35C 100 81.66666666666667 0 81.66666666666667 0 35Z" stroke="#323232" stroke-width="2" fill-opacity="1" fill="#ffffff"></path><g id="SvgjsG1115"><text id="SvgjsText1116" font-family="微软雅黑" text-anchor="middle" font-size="13px" width="58" fill="#323232" font-weight="400" align="middle" anchor="middle" family="微软雅黑" size="13px" weight="400" font-style="" y="25.05" transform="rotate(0)"><tspan id="SvgjsTspan1117" dy="16" x="50"><tspan id="SvgjsTspan1118" style="text-decoration:;">订单管理</tspan></tspan></text></g></g><g id="SvgjsG1119" transform="translate(410.00628662109375,905.406268119812)"><path id="SvgjsPath1120" d="M 0 35C 0 -11.666666666666666 100 -11.666666666666666 100 35C 100 81.66666666666667 0 81.66666666666667 0 35Z" stroke="#323232" stroke-width="2" fill-opacity="1" fill="#ffffff"></path><g id="SvgjsG1121"><text id="SvgjsText1122" font-family="微软雅黑" text-anchor="middle" font-size="13px" width="58" fill="#323232" font-weight="400" align="middle" anchor="middle" family="微软雅黑" size="13px" weight="400" font-style="" y="25.05" transform="rotate(0)"><tspan id="SvgjsTspan1123" dy="16" x="50"><tspan id="SvgjsTspan1124" style="text-decoration:;">删除订单</tspan></tspan></text></g></g><g id="SvgjsG1125"><path id="SvgjsPath1126" d="M333.18713457680474 918.832691683461L410.00628662109375 940.406268119812" stroke="#323232" stroke-width="2" fill="none" marker-end="url(#SvgjsMarker1127)"></path></g><g id="SvgjsG1129"><path id="SvgjsPath1130" d="M331.67615960217154 885.906268119812L408.00628662109375 864.406268119812" stroke="#323232" stroke-width="2" fill="none" marker-end="url(#SvgjsMarker1131)"></path></g><g id="SvgjsG1133" transform="translate(238.00628662109375,485.406268119812)"><path id="SvgjsPath1134" d="M 0 35C 0 -11.666666666666666 100 -11.666666666666666 100 35C 100 81.66666666666667 0 81.66666666666667 0 35Z" stroke="#323232" stroke-width="2" fill-opacity="1" fill="#ffffff"></path><g id="SvgjsG1135"><text id="SvgjsText1136" font-family="微软雅黑" text-anchor="middle" font-size="13px" width="29" fill="#323232" font-weight="400" align="middle" anchor="middle" family="微软雅黑" size="13px" weight="400" font-style="" y="25.05" transform="rotate(0)"><tspan id="SvgjsTspan1137" dy="16" x="50"><tspan id="SvgjsTspan1138" style="text-decoration:;">采购</tspan></tspan></text></g></g><g id="SvgjsG1139" transform="translate(408.00628662109375,485.406268119812)"><path id="SvgjsPath1140" d="M 0 35C 0 -11.666666666666666 100 -11.666666666666666 100 35C 100 81.66666666666667 0 81.66666666666667 0 35Z" stroke="#323232" stroke-width="2" fill-opacity="1" fill="#ffffff"></path><g id="SvgjsG1141"><text id="SvgjsText1142" font-family="微软雅黑" text-anchor="middle" font-size="13px" width="29" fill="#323232" font-weight="400" align="middle" anchor="middle" family="微软雅黑" size="13px" weight="400" font-style="" y="25.05" transform="rotate(0)"><tspan id="SvgjsTspan1143" dy="16" x="50"><tspan id="SvgjsTspan1144" style="text-decoration:;">招标</tspan></tspan></text></g></g><g id="SvgjsG1145" transform="translate(238.00628662109375,576.406268119812)"><path id="SvgjsPath1146" d="M 0 35C 0 -11.666666666666666 100 -11.666666666666666 100 35C 100 81.66666666666667 0 81.66666666666667 0 35Z" stroke="#323232" stroke-width="2" fill-opacity="1" fill="#ffffff"></path><g id="SvgjsG1147"><text id="SvgjsText1148" font-family="微软雅黑" text-anchor="middle" font-size="13px" width="29" fill="#323232" font-weight="400" align="middle" anchor="middle" family="微软雅黑" size="13px" weight="400" font-style="" y="25.05" transform="rotate(0)"><tspan id="SvgjsTspan1149" dy="16" x="50"><tspan id="SvgjsTspan1150" style="text-decoration:;">投标</tspan></tspan></text></g></g><g id="SvgjsG1151"><path id="SvgjsPath1152" d="M508.00628662109375 520.406268119812L577.0062866210938 520.406268119812" stroke="#323232" stroke-width="2" fill="none" marker-end="url(#SvgjsMarker1153)"></path></g><g id="SvgjsG1155" transform="translate(577.0062866210938,485.406268119812)"><path id="SvgjsPath1156" d="M 0 35C 0 -11.666666666666666 100 -11.666666666666666 100 35C 100 81.66666666666667 0 81.66666666666667 0 35Z" stroke="#323232" stroke-width="2" fill-opacity="1" fill="#ffffff"></path><g id="SvgjsG1157"><text id="SvgjsText1158" font-family="微软雅黑" text-anchor="middle" font-size="13px" width="58" fill="#323232" font-weight="400" align="middle" anchor="middle" family="微软雅黑" size="13px" weight="400" font-style="" y="25.05" transform="rotate(0)"><tspan id="SvgjsTspan1159" dy="16" x="50"><tspan id="SvgjsTspan1160" style="text-decoration:;">拟定合同</tspan></tspan></text></g></g><g id="SvgjsG1161"><path id="SvgjsPath1162" d="M338.00628662109375 520.406268119812L408.00628662109375 520.406268119812" stroke="#323232" stroke-width="2" fill="none" marker-end="url(#SvgjsMarker1163)"></path></g><g id="SvgjsG1165"><path id="SvgjsPath1166" d="M334.12690137952194 327.69030115853855L413.8365088366886 267.7923228234545" stroke="#323232" stroke-width="2" fill="none" marker-end="url(#SvgjsMarker1167)"></path></g><g id="SvgjsG1169"><path id="SvgjsPath1170" d="M331.70815329173683 358.0778980428276L413.30441995045067 348.0778980428276" stroke="#323232" stroke-width="2" fill="none" marker-end="url(#SvgjsMarker1171)"></path></g><g id="SvgjsG1173"><path id="SvgjsPath1174" d="M95.00628662109375 527.406268119812L238.00628662109375 251.406268119812" stroke="#323232" stroke-width="2" fill="none"></path></g><g id="SvgjsG1175"><path id="SvgjsPath1176" d="M238.00628662109375 341.406268119812L95.00628662109375 527.406268119812" stroke="#323232" stroke-width="2" fill="none"></path></g><g id="SvgjsG1177"><path id="SvgjsPath1178" d="M238.00628662109375 430.406268119812L95.00628662109375 527.406268119812" stroke="#323232" stroke-width="2" fill="none"></path></g><g id="SvgjsG1179"><path id="SvgjsPath1180" d="M238.00628662109375 520.406268119812L95.00628662109375 527.406268119812" stroke="#323232" stroke-width="2" fill="none"></path></g><g id="SvgjsG1181"><path id="SvgjsPath1182" d="M238.00628662109375 611.406268119812L95.00628662109375 527.406268119812" stroke="#323232" stroke-width="2" fill="none"></path></g><g id="SvgjsG1183"><path id="SvgjsPath1184" d="M238.00628662109375 703.406268119812L95.00628662109375 527.406268119812" stroke="#323232" stroke-width="2" fill="none"></path></g><g id="SvgjsG1185"><path id="SvgjsPath1186" d="M238.00628662109375 903.406268119812L95.00628662109375 527.406268119812" stroke="#323232" stroke-width="2" fill="none"></path></g></svg>